<svg xmlns="http://www.w3.org/2000/svg" viewBox="0 0 128 128" width="128" height="128" role="img" aria-label="ShopFront icon">
  <defs>
    <linearGradient id="chatGradientIcon" x1="0%" y1="0%" x2="100%" y2="100%">
      <stop offset="0%" stop-color="#0F7666" />
      <stop offset="100%" stop-color="#254F88" />
    </linearGradient>
  </defs>

  <path d="M64 8C95 8 120 33 120 64C120 95 95 120 64 120C50 120 37 115 28 107L8 120L14 98C10 89 8 77 8 64C8 33 33 8 64 8Z" fill="url(#chatGradientIcon)" />

  <g transform="translate(32, 33)">
    <polygon points="8,0 52,0 60,20 0,20" fill="#F0B429" />
    <polygon points="18,0 26,0 30,20 22,20" fill="#FFFFFF" opacity="0.92" />
    <polygon points="35,0 43,0 47,20 39,20" fill="#FFFFFF" opacity="0.92" />

    <circle cx="6" cy="20" r="6" fill="#F0B429" />
    <circle cx="18" cy="20" r="6" fill="#FFFFFF" opacity="0.92" />
    <circle cx="30" cy="20" r="6" fill="#F0B429" />
    <circle cx="42" cy="20" r="6" fill="#FFFFFF" opacity="0.92" />
    <circle cx="54" cy="20" r="6" fill="#F0B429" />

    <rect x="4" y="27" width="52" height="22" fill="#FFFFFF" opacity="0.22" rx="2" />
    <rect x="13" y="31" width="34" height="13" fill="#FFFFFF" opacity="0.92" rx="1" />
    <line x1="17" y1="35" x2="43" y2="35" stroke="#1F2A2C" stroke-width="2" stroke-linecap="round" />
    <line x1="17" y1="40" x2="35" y2="40" stroke="#1F2A2C" stroke-width="2" stroke-linecap="round" />
  </g>
</svg>
