<svg xmlns="http://www.w3.org/2000/svg" viewBox="0 0 700 220" width="100%" height="100%" role="img" aria-label="ShopFront logo">
  <defs>
    <linearGradient id="chatGradient" x1="0%" y1="0%" x2="100%" y2="100%">
      <stop offset="0%" stop-color="#0F7666" />
      <stop offset="100%" stop-color="#254F88" />
    </linearGradient>
  </defs>

  <g transform="translate(40, 40)">
    <path d="M60 0C93 0 120 27 120 60C120 93 93 120 60 120C45 120 32 114 22 105L0 120L8 95C3 85 0 73 0 60C0 27 27 0 60 0Z" fill="url(#chatGradient)" />

    <g transform="translate(25, 30)">
      <polygon points="10,0 60,0 70,25 0,25" fill="#F0B429" />

      <polygon points="20,0 30,0 35,25 25,25" fill="#FFFFFF" opacity="0.92" />
      <polygon points="40,0 50,0 55,25 45,25" fill="#FFFFFF" opacity="0.92" />

      <circle cx="7" cy="25" r="7" fill="#F0B429" />
      <circle cx="21" cy="25" r="7" fill="#FFFFFF" opacity="0.92" />
      <circle cx="35" cy="25" r="7" fill="#F0B429" />
      <circle cx="49" cy="25" r="7" fill="#FFFFFF" opacity="0.92" />
      <circle cx="63" cy="25" r="7" fill="#F0B429" />

      <rect x="5" y="32" width="60" height="25" fill="#FFFFFF" opacity="0.2" rx="2" />
      <rect x="15" y="36" width="40" height="15" fill="#FFFFFF" opacity="0.92" rx="1" />
      <line x1="20" y1="41" x2="50" y2="41" stroke="#1F2A2C" stroke-width="2" stroke-linecap="round" />
      <line x1="20" y1="47" x2="40" y2="47" stroke="#1F2A2C" stroke-width="2" stroke-linecap="round" />
    </g>
  </g>

  <text x="186" y="118" font-family="'Space Grotesk', 'Manrope', 'Segoe UI', sans-serif" font-size="84" font-weight="800" fill="#1F2A2C" letter-spacing="-1">
    Shop<tspan fill="#0F7666">Front</tspan>
  </text>

  <text x="190" y="166" font-family="'Manrope', 'Segoe UI', sans-serif" font-size="22" font-weight="700" fill="#546163" letter-spacing="1.7">
    WEBSITE MANAGEMENT VIA TEXT
  </text>
</svg>
